<svg width="17" height="14" viewBox="0 0 17 14" fill="none" xmlns="http://www.w3.org/2000/svg">
<path d="M16.5002 6.7746C16.5002 7.15429 16.2181 7.46809 15.852 7.51775L15.7502 7.5246L0.750244 7.5246C0.336031 7.5246 0.000244141 7.18881 0.000244141 6.7746C0.000244141 6.3949 0.282398 6.08111 0.648474 6.03144L0.750244 6.0246L15.7502 6.0246C16.1645 6.0246 16.5002 6.36038 16.5002 6.7746Z" fill="black"/>
<path d="M7.32924 12.2675C7.62276 12.5598 7.62378 13.0347 7.33152 13.3282C7.06583 13.595 6.64922 13.6201 6.35514 13.4029L6.27086 13.3305L0.220862 7.30647C-0.0467749 7.03998 -0.0711217 6.62187 0.147832 6.3278L0.220818 6.24357L6.27082 0.218573C6.56432 -0.0737131 7.03919 -0.0727299 7.33148 0.220769C7.59719 0.487586 7.62053 0.904299 7.40207 1.19746L7.32928 1.28143L1.81325 6.7753L7.32924 12.2675Z" fill="black"/>
</svg>
