<svg width="14" height="14" viewBox="0 0 14 14" fill="none" xmlns="http://www.w3.org/2000/svg">
<mask id="mask0_671_116" style="mask-type:luminance" maskUnits="userSpaceOnUse" x="0" y="0" width="14" height="14">
<path fill-rule="evenodd" clip-rule="evenodd" d="M0 0.333252H13.6483V13.3339H0V0.333252Z" fill="white"/>
</mask>
<g mask="url(#mask0_671_116)">
<path fill-rule="evenodd" clip-rule="evenodd" d="M1.21579 6.41533C2.15045 9.32333 5.84312 11.6747 6.82446 12.2567C7.80912 11.6687 11.5285 9.29133 12.4331 6.418C13.0271 4.56066 12.4758 2.208 10.2851 1.502C9.22379 1.16133 7.98579 1.36866 7.13112 2.03C6.95246 2.16733 6.70446 2.17 6.52446 2.034C5.61912 1.35333 4.43646 1.154 3.35845 1.502C1.17112 2.20733 0.621788 4.56 1.21579 6.41533ZM6.82512 13.334C6.74246 13.334 6.66046 13.314 6.58579 13.2733C6.37712 13.1593 1.46179 10.45 0.263788 6.72066C0.263121 6.72066 0.263121 6.72 0.263121 6.72C-0.488879 4.372 0.348455 1.42133 3.05179 0.549997C4.32112 0.139331 5.70446 0.319997 6.82312 1.026C7.90712 0.340664 9.34712 0.151331 10.5911 0.549997C13.2971 1.42266 14.1371 4.37266 13.3858 6.72C12.2265 10.4067 7.27512 13.1567 7.06512 13.272C6.99046 13.3133 6.90779 13.334 6.82512 13.334Z" fill="black"/>
</g>
<path fill-rule="evenodd" clip-rule="evenodd" d="M10.7691 5.4166C10.5111 5.4166 10.2924 5.2186 10.2711 4.95727C10.2271 4.40927 9.86044 3.9466 9.33844 3.77793C9.07511 3.6926 8.93111 3.4106 9.01577 3.1486C9.10177 2.88593 9.38111 2.74327 9.64511 2.82593C10.5538 3.11993 11.1904 3.9246 11.2684 4.87593C11.2904 5.15127 11.0858 5.3926 10.8104 5.4146C10.7964 5.41593 10.7831 5.4166 10.7691 5.4166Z" fill="black"/>
</svg>
