<svg width="18" height="18" viewBox="0 0 18 18" fill="none" xmlns="http://www.w3.org/2000/svg">
<path fill-rule="evenodd" clip-rule="evenodd" d="M8.62511 2.53333C5.67499 2.53333 3.28345 4.92487 3.28345 7.87499C3.28345 10.8251 5.67499 13.2167 8.62511 13.2167C9.71994 13.2167 10.7378 12.8873 11.5851 12.3222L14.2605 15.6664C14.4215 15.8677 14.7152 15.9003 14.9164 15.7393C15.1177 15.5783 15.1503 15.2846 14.9893 15.0834L12.3136 11.7387C13.3322 10.7661 13.9668 9.39463 13.9668 7.87499C13.9668 4.92487 11.5752 2.53333 8.62511 2.53333ZM11.5623 11.1624C12.4652 10.3551 13.0334 9.18142 13.0334 7.87499C13.0334 5.44034 11.0598 3.46666 8.62511 3.46666C6.19046 3.46666 4.21678 5.44034 4.21678 7.87499C4.21678 10.3096 6.19046 12.2833 8.62511 12.2833C9.58063 12.2833 10.4651 11.9793 11.1872 11.4628C11.2156 11.3858 11.2647 11.3154 11.3334 11.2605C11.4019 11.2056 11.4812 11.1733 11.5623 11.1624Z" fill="black"/>
</svg>
