<svg width="18" height="18" viewBox="0 0 18 18" fill="none" xmlns="http://www.w3.org/2000/svg">
<path d="M8.91786 12.4995C10.6928 12.4995 12.1316 11.0911 12.1316 9.35385C12.1316 7.61655 10.6928 6.20819 8.91786 6.20819C7.14295 6.20819 5.7041 7.61655 5.7041 9.35385C5.7041 11.0911 7.14295 12.4995 8.91786 12.4995Z" fill="#CDCED6"/>
<path d="M12.4085 0.947388H5.37149C2.5733 0.947388 0.301514 3.17104 0.301514 5.90993V12.7436C0.301514 15.5367 2.5733 17.7604 5.37149 17.7604H12.3531C15.2067 17.7604 17.4785 15.5367 17.4785 12.7978V5.90993C17.4785 3.17104 15.2067 0.947388 12.4085 0.947388ZM8.9177 13.4758C6.56279 13.4758 4.70657 11.6047 4.70657 9.35389C4.70657 7.10312 6.5905 5.23199 8.9177 5.23199C11.2172 5.23199 13.1011 7.10312 13.1011 9.35389C13.1011 11.6047 11.2449 13.4758 8.9177 13.4758ZM14.7357 5.61164C14.4587 5.90993 14.0431 6.07264 13.5721 6.07264C13.1565 6.07264 12.741 5.90993 12.4085 5.61164C12.1037 5.31334 11.9375 4.9337 11.9375 4.47269C11.9375 4.01169 12.1037 3.65916 12.4085 3.33375C12.7133 3.00834 13.1011 2.84563 13.5721 2.84563C13.9877 2.84563 14.4309 3.00834 14.7357 3.30663C15.0127 3.65916 15.2067 4.06593 15.2067 4.49981C15.179 4.9337 15.0127 5.31334 14.7357 5.61164Z" fill="#CDCED6"/>
<path d="M13.6 3.82184C13.2398 3.82184 12.9351 4.12013 12.9351 4.47266C12.9351 4.82519 13.2398 5.12349 13.6 5.12349C13.9601 5.12349 14.2649 4.82519 14.2649 4.47266C14.2649 4.12013 13.9878 3.82184 13.6 3.82184Z" fill="#CDCED6"/>
</svg>
