<svg width="18" height="18" viewBox="0 0 18 18" fill="none" xmlns="http://www.w3.org/2000/svg">
<path d="M16.7824 0.947388H1.84872C1.14297 0.947388 0.578369 1.49747 0.578369 2.18508V16.7623C0.578369 17.4224 1.14297 18 1.84872 18H16.7259C17.4316 18 17.9962 17.4499 17.9962 16.7623V2.15757C18.0527 1.49747 17.4881 0.947388 16.7824 0.947388ZM5.74445 15.4421H3.17552V7.32837H5.74445V15.4421ZM4.44587 6.2007C3.59897 6.2007 2.94968 5.5406 2.94968 4.74297C2.94968 3.94535 3.6272 3.28525 4.44587 3.28525C5.26454 3.28525 5.94206 3.94535 5.94206 4.74297C5.94206 5.5406 5.321 6.2007 4.44587 6.2007ZM15.4838 15.4421H12.9149V11.509C12.9149 10.5739 12.8866 9.33618 11.5598 9.33618C10.2048 9.33618 10.0072 10.3813 10.0072 11.4265V15.4421H7.43824V7.32837H9.95071V8.45605H9.97894C10.3459 7.79594 11.1646 7.13584 12.4349 7.13584C15.0603 7.13584 15.5402 8.7861 15.5402 11.0414V15.4421H15.4838Z" fill="#CDCED6"/>
</svg>
