<svg width="35" height="35" viewBox="0 0 35 35" fill="none" xmlns="http://www.w3.org/2000/svg">
<mask id="mask0_671_266" style="mask-type:luminance" maskUnits="userSpaceOnUse" x="0" y="0" width="35" height="35">
<path fill-rule="evenodd" clip-rule="evenodd" d="M0.438232 0.437866H34.7438V34.7266H0.438232V0.437866Z" fill="white"/>
</mask>
<g mask="url(#mask0_671_266)">
<path fill-rule="evenodd" clip-rule="evenodd" d="M10.1492 3.01562C5.8162 3.01562 3.01636 5.98391 3.01636 10.5764V24.5877C3.01636 29.1819 5.8162 32.1484 10.1492 32.1484H25.0164C29.3596 32.1484 32.1664 29.1819 32.1664 24.5877V10.5764C32.1664 5.98391 29.3596 3.01562 25.0164 3.01562H10.1492ZM25.0164 34.7267H10.1492C4.33979 34.7267 0.438232 30.6515 0.438232 24.5878V10.5765C0.438232 4.51278 4.33979 0.437622 10.1492 0.437622H25.0164C30.8343 0.437622 34.7445 4.51278 34.7445 10.5765V24.5878C34.7445 30.6515 30.8343 34.7267 25.0164 34.7267Z" fill="#61646B"/>
</g>
<path fill-rule="evenodd" clip-rule="evenodd" d="M6.07752 26.5288C5.75784 26.5288 5.43987 26.4119 5.19065 26.1748C4.67331 25.6866 4.65268 24.8685 5.14252 24.3546L7.76877 21.5823C9.15924 20.1058 11.5053 20.0337 12.9886 21.4258L14.6352 23.0965C15.0941 23.5605 15.84 23.5691 16.3007 23.1154C16.4742 22.9108 20.2177 18.3648 20.2177 18.3648C20.9292 17.5019 21.933 16.9691 23.0485 16.8591C24.1657 16.7612 25.2502 17.086 26.1147 17.7958C26.1886 17.856 26.2556 17.9144 30.03 21.7902C30.5267 22.299 30.5182 23.1154 30.0077 23.6121C29.4989 24.1123 28.6808 24.0968 28.1841 23.588C28.1841 23.588 24.6624 19.9735 24.4114 19.7294C24.145 19.5112 23.7171 19.384 23.296 19.4252C22.868 19.4682 22.483 19.6727 22.2097 20.0044C18.2153 24.8496 18.1672 24.896 18.1019 24.9596C16.6272 26.4068 14.2467 26.3827 12.7978 24.9046C12.7978 24.9046 11.1994 23.2821 11.1719 23.2494C10.7749 22.8816 10.0667 22.9057 9.64221 23.3543L7.01252 26.1266C6.75815 26.3948 6.41784 26.5288 6.07752 26.5288Z" fill="#61646B"/>
<path fill-rule="evenodd" clip-rule="evenodd" d="M11.7084 10.9717C10.758 10.9717 9.98451 11.7451 9.98451 12.6973C9.98451 13.6495 10.758 14.4246 11.7101 14.4246C12.6623 14.4246 13.4375 13.6495 13.4375 12.6973C13.4375 11.7468 12.6623 10.9734 11.7084 10.9717ZM11.7101 17.0028C9.33653 17.0028 7.40637 15.0709 7.40637 12.6973C7.40637 10.3237 9.33653 8.39355 11.7101 8.39355C14.0854 8.39527 16.0156 10.3271 16.0156 12.6973C16.0156 15.0709 14.0837 17.0028 11.7101 17.0028Z" fill="#61646B"/>
</svg>
