<svg width="19" height="15" viewBox="0 0 19 15" fill="none" xmlns="http://www.w3.org/2000/svg">
<path d="M16.2621 3.17884L17.3299 1.93299C17.639 1.59557 17.7233 1.33602 17.7514 1.20624C16.9084 1.67343 16.1216 1.82917 15.6158 1.82917H15.4191L15.3067 1.72534C14.6323 1.18028 13.7893 0.894775 12.8901 0.894775C10.9231 0.894775 9.37767 2.40018 9.37767 4.13919C9.37767 4.24301 9.37767 4.39874 9.40577 4.50256L9.49006 5.02167L8.89997 4.99571C5.30322 4.89189 2.35275 2.03681 1.87506 1.54366C1.08827 2.84142 1.53787 4.08728 2.01556 4.86594L2.97095 6.31943L1.45357 5.54077C1.48167 6.6309 1.93126 7.48742 2.80235 8.11035L3.56104 8.62945L2.80235 8.91496C3.28004 10.2387 4.34783 10.7837 5.13462 10.9914L6.17431 11.2509L5.19082 11.8739C3.61724 12.9121 1.65026 12.8342 0.779175 12.7563C2.54945 13.8984 4.65693 14.1579 6.11811 14.1579C7.21399 14.1579 8.02888 14.0541 8.22558 13.9762C16.0935 12.2632 16.4588 5.77437 16.4588 4.47661V4.29492L16.6274 4.1911C17.5828 3.36053 17.9762 2.91929 18.201 2.65974C18.1167 2.68569 18.0043 2.7376 17.8919 2.76356L16.2621 3.17884Z" fill="#CDCED6"/>
</svg>
